<svg width="70" height="68" viewBox="0 0 70 68" fill="none" xmlns="http://www.w3.org/2000/svg">
    <g filter="url(#filter0_d_126_1071)">
        <rect x="2" y="1" width="64" height="64" rx="4" fill="#94A3B8" />
    </g>
    <path
        d="M11.3333 21C11.3333 22.4728 12.5272 23.6667 14 23.6667C15.4728 23.6667 16.6667 22.4728 16.6667 21C16.6667 19.5272 15.4728 18.3333 14 18.3333C12.5272 18.3333 11.3333 19.5272 11.3333 21ZM2 21.5H14V20.5H2V21.5Z"
        fill="#E2E8F0" />
    <path
        d="M11.3333 33C11.3333 34.4728 12.5272 35.6667 14 35.6667C15.4728 35.6667 16.6667 34.4728 16.6667 33C16.6667 31.5272 15.4728 30.3333 14 30.3333C12.5272 30.3333 11.3333 31.5272 11.3333 33ZM2 33.5H14V32.5H2V33.5Z"
        fill="#E2E8F0" />
    <path
        d="M11.3333 45C11.3333 46.4728 12.5272 47.6667 14 47.6667C15.4728 47.6667 16.6667 46.4728 16.6667 45C16.6667 43.5272 15.4728 42.3333 14 42.3333C12.5272 42.3333 11.3333 43.5272 11.3333 45ZM2 45.5H14V44.5H2V45.5Z"
        fill="#E2E8F0" />
    <path
        d="M22 4.33333C20.5272 4.33333 19.3333 5.52724 19.3333 7C19.3333 8.47276 20.5272 9.66667 22 9.66667C23.4728 9.66667 24.6667 8.47276 24.6667 7C24.6667 5.52724 23.4728 4.33333 22 4.33333ZM21.5 1V7H22.5V1H21.5Z"
        fill="#E2E8F0" />
    <path
        d="M14 61.6667C15.4728 61.6667 16.6667 60.4728 16.6667 59C16.6667 57.5272 15.4728 56.3333 14 56.3333C12.5272 56.3333 11.3333 57.5272 11.3333 59C11.3333 60.4728 12.5272 61.6667 14 61.6667ZM14.5 65V59H13.5V65H14.5Z"
        fill="#E2E8F0" />
    <path
        d="M62.6667 45C62.6667 43.5272 61.4728 42.3333 60 42.3333C58.5272 42.3333 57.3333 43.5272 57.3333 45C57.3333 46.4728 58.5272 47.6667 60 47.6667C61.4728 47.6667 62.6667 46.4728 62.6667 45ZM66 44.5H60V45.5H66V44.5Z"
        fill="#E2E8F0" />
    <path
        d="M58 55H58.5V54.5H58V55ZM54.6667 55C54.6667 53.5272 53.4728 52.3333 52 52.3333C50.5272 52.3333 49.3333 53.5272 49.3333 55C49.3333 56.4728 50.5272 57.6667 52 57.6667C53.4728 57.6667 54.6667 56.4728 54.6667 55ZM58.5 65V55H57.5V65H58.5ZM58 54.5H52V55.5H58V54.5Z"
        fill="#E2E8F0" />
    <g filter="url(#filter1_d_126_1071)">
        <path
            d="M24.4074 19.783L45.6709 3.44881C46.8939 2.50931 48.393 2 49.9352 2H63.0588C64.1634 2 65.0588 2.89543 65.0588 4V14.1047C65.0588 14.9439 64.9079 15.7764 64.6133 16.5622L54.6958 43.0133C53.9663 44.959 52.41 46.4801 50.4481 47.1648L28 55L21 50L21.6743 25.1443C21.7315 23.0368 22.7355 21.0673 24.4074 19.783Z"
            fill="#F0F9FF" />
        <path
            d="M24.4074 19.783L45.6709 3.44881C46.8939 2.50931 48.393 2 49.9352 2H63.0588C64.1634 2 65.0588 2.89543 65.0588 4V14.1047C65.0588 14.9439 64.9079 15.7764 64.6133 16.5622L54.6958 43.0133C53.9663 44.959 52.41 46.4801 50.4481 47.1648L28 55L21 50L21.6743 25.1443C21.7315 23.0368 22.7355 21.0673 24.4074 19.783Z"
            stroke="#F8FAFC" stroke-width="2" />
    </g>
    <g filter="url(#filter2_f_126_1071)">
        <path d="M34.4706 37L43.4118 32.5L38.7059 19.5L55.5 29.5L54 13" stroke="#E2E8F0"
            stroke-width="2" stroke-linecap="square" />
    </g>
    <path d="M34.4706 37L43.4118 32.5L38.7059 19.5L55.5 29.5L54 13" stroke="#E2E8F0"
        stroke-width="2" stroke-linecap="square" />
    <path
        d="M23.6822 51.9245L23.1067 52.7423L24.7423 53.8933L25.3178 53.0755L23.6822 51.9245ZM28.6667 39C28.6667 41.9455 31.0545 44.3333 34 44.3333C36.9455 44.3333 39.3333 41.9455 39.3333 39C39.3333 36.0545 36.9455 33.6667 34 33.6667C31.0545 33.6667 28.6667 36.0545 28.6667 39ZM25.3178 53.0755L34.8178 39.5755L33.1822 38.4245L23.6822 51.9245L25.3178 53.0755Z"
        fill="#94A3B8" />
    <path
        d="M61.8051 3.5932C62.1327 3.14858 62.0378 2.52256 61.5932 2.19494C61.1486 1.86733 60.5226 1.96218 60.1949 2.4068L61.8051 3.5932ZM48.6667 12.5C48.6667 15.4455 51.0545 17.8333 54 17.8333C56.9455 17.8333 59.3333 15.4455 59.3333 12.5C59.3333 9.55448 56.9455 7.16667 54 7.16667C51.0545 7.16667 48.6667 9.55448 48.6667 12.5ZM60.1949 2.4068L53.1949 11.9068L54.8051 13.0932L61.8051 3.5932L60.1949 2.4068Z"
        fill="url(#paint0_linear_126_1071)" />
    <defs>
        <filter id="filter0_d_126_1071" x="0" y="0" width="68" height="68"
            filterUnits="userSpaceOnUse" color-interpolation-filters="sRGB">
            <feFlood flood-opacity="0" result="BackgroundImageFix" />
            <feColorMatrix in="SourceAlpha" type="matrix"
                values="0 0 0 0 0 0 0 0 0 0 0 0 0 0 0 0 0 0 127 0" result="hardAlpha" />
            <feOffset dy="1" />
            <feGaussianBlur stdDeviation="1" />
            <feComposite in2="hardAlpha" operator="out" />
            <feColorMatrix type="matrix" values="0 0 0 0 0 0 0 0 0 0 0 0 0 0 0 0 0 0 0.25 0" />
            <feBlend mode="normal" in2="BackgroundImageFix" result="effect1_dropShadow_126_1071" />
            <feBlend mode="normal" in="SourceGraphic" in2="effect1_dropShadow_126_1071"
                result="shape" />
        </filter>
        <filter id="filter1_d_126_1071" x="16.986" y="0" width="52.0729" height="61.1149"
            filterUnits="userSpaceOnUse" color-interpolation-filters="sRGB">
            <feFlood flood-opacity="0" result="BackgroundImageFix" />
            <feColorMatrix in="SourceAlpha" type="matrix"
                values="0 0 0 0 0 0 0 0 0 0 0 0 0 0 0 0 0 0 127 0" result="hardAlpha" />
            <feOffset dy="2" />
            <feGaussianBlur stdDeviation="1.5" />
            <feComposite in2="hardAlpha" operator="out" />
            <feColorMatrix type="matrix" values="0 0 0 0 0 0 0 0 0 0 0 0 0 0 0 0 0 0 0.15 0" />
            <feBlend mode="normal" in2="BackgroundImageFix" result="effect1_dropShadow_126_1071" />
            <feBlend mode="normal" in="SourceGraphic" in2="effect1_dropShadow_126_1071"
                result="shape" />
        </filter>
        <filter id="filter2_f_126_1071" x="29.1277" y="7.91357" width="31.5457" height="34.4292"
            filterUnits="userSpaceOnUse" color-interpolation-filters="sRGB">
            <feFlood flood-opacity="0" result="BackgroundImageFix" />
            <feBlend mode="normal" in="SourceGraphic" in2="BackgroundImageFix" result="shape" />
            <feGaussianBlur stdDeviation="2" result="effect1_foregroundBlur_126_1071" />
        </filter>
        <linearGradient id="paint0_linear_126_1071" x1="55.5882" y1="11" x2="62.3032" y2="2.7211"
            gradientUnits="userSpaceOnUse">
            <stop stop-color="#94A3B8" />
            <stop offset="1" stop-color="#F0F9FF" />
        </linearGradient>
    </defs>
</svg>